<?xml version="1.0"?>
<svg version="1.1" xmlns="http://www.w3.org/2000/svg" width="400" height="200" style=""><path fill="#" d="M85.83,146.35c0,1.62-0.63,2.25-2.16,2.25l-6.3,0c-1.62,0-2.34-0.63-2.34-2.25l0-24.66c0-4.86-1.26-8.55-6.75-8.55c-3.42,0-7.38,1.8-10.17,4.05c0.18,0.81,0.36,12.87,0.36,14.13l0,15.03c0,1.62-0.63,2.25-2.16,2.25l-5.94,0c-1.62,0-2.34-0.63-2.34-2.25l0-24.66c0-4.77-0.99-8.55-6.48-8.55c-3.51,0-7.11,1.98-9.99,4.5l0,28.71c0,1.62-0.72,2.25-2.25,2.25l-6.3,0c-1.62,0-2.34-0.63-2.34-2.25l0-39.33c0-1.44,0.81-2.07,2.16-2.07l5.85,0c1.35,0,2.16,0.45,2.25,1.71l0.09,2.25c3.69-3.24,8.55-5.13,13.23-5.13c5.49,0,9.36,2.43,11.43,5.85c4.05-3.87,9.9-5.85,15.39-5.85c6.57,0,10.71,3.24,12.6,6.75c1.71,3.33,2.16,7.29,2.16,13.05l0,22.77z M143.925,126.19c0,6.84-2.07,13.05-5.85,17.46c-3.33,3.78-8.01,6.12-13.86,6.12c-4.14,0-8.28-1.53-10.89-4.23l0,20.16c0,1.8-0.81,2.34-2.34,2.34l-6.3,0c-1.44,0-2.16-0.81-2.16-2.34l0-58.68c0-1.53,0.72-2.07,2.16-2.07l5.4,0c1.53,0,2.34,0.36,2.43,1.71l0.09,2.43c2.61-2.97,7.74-5.22,12.6-5.22c5.94,0,10.08,2.25,13.05,5.49c3.87,4.23,5.67,10.53,5.67,16.83z M132.585,126.73c0-4.23-0.81-7.92-2.61-10.44c-1.71-2.43-4.23-3.69-7.38-3.69c-3.33,0-7.47,2.16-9.27,4.41l0,19.62c1.8,2.43,5.4,4.41,8.82,4.41c3.15,0,5.67-1.44,7.2-3.33c2.25-2.79,3.24-6.57,3.24-10.98z M198.78,126.73c0,12.96-7.92,22.95-21.96,22.95c-14.67,0-21.42-9.9-21.42-23.04c0-12.96,7.92-22.86,21.96-22.86c14.67,0,21.42,9.72,21.42,22.95z M187.53,126.73c0-7.38-2.34-14.4-10.26-14.4c-8.01,0-10.62,6.93-10.62,14.13c0,7.38,2.25,14.67,10.26,14.67c7.92,0,10.62-7.02,10.62-14.4z M254.265,126.19c0,6.84-2.07,13.05-5.85,17.46c-3.33,3.78-8.01,6.12-13.86,6.12c-4.14,0-8.28-1.53-10.89-4.23l0,20.16c0,1.8-0.81,2.34-2.34,2.34l-6.3,0c-1.44,0-2.16-0.81-2.16-2.34l0-58.68c0-1.53,0.72-2.07,2.16-2.07l5.4,0c1.53,0,2.34,0.36,2.43,1.71l0.09,2.43c2.61-2.97,7.74-5.22,12.6-5.22c5.94,0,10.08,2.25,13.05,5.49c3.87,4.23,5.67,10.53,5.67,16.83z M242.925,126.73c0-4.23-0.81-7.92-2.61-10.44c-1.71-2.43-4.23-3.69-7.38-3.69c-3.33,0-7.47,2.16-9.27,4.41l0,19.62c1.8,2.43,5.4,4.41,8.82,4.41c3.15,0,5.67-1.44,7.2-3.33c2.25-2.79,3.24-6.57,3.24-10.98z M295.53,145.9c0,0.9-0.45,1.35-1.35,1.71c-2.79,1.17-6.48,2.07-10.08,2.07c-4.59,0-8.55-1.17-10.8-3.78c-2.79-3.15-2.88-6.84-2.88-13.41l0-20.07l-4.23,0c-1.71,0-1.98-0.36-1.98-2.25l0-3.42c0-1.08,0.54-1.8,1.62-1.8l4.59,0l0-9.81c0-1.53,0.81-1.98,2.25-2.16l6.48-0.81l0.45,0c1.17,0,1.71,0.63,1.71,1.98l0,10.8l10.17,0c1.08,0,1.71,0.36,1.71,1.53l0,4.23c0,1.08-0.72,1.71-1.8,1.71l-10.08,0l0,20.61c0,2.7,0.18,4.68,1.17,6.12c0.81,1.17,2.07,1.89,4.23,1.89c2.25,0,4.14-0.54,5.76-1.08c0.36-0.09,0.63-0.18,0.9-0.18c0.63,0,0.99,0.36,1.17,1.08l0.9,4.5c0.09,0.27,0.09,0.36,0.09,0.54z"/><path fill="#" d=""/></svg>
