<?xml version="1.0"?>
<svg version="1.1" xmlns="http://www.w3.org/2000/svg" width="400" height="200" style="border: dashed 2px #aaa"><path fill="#" d="M93.7,151.5c0,1.8-0.7,2.5-2.4,2.5l-7,0c-1.8,0-2.6-0.7-2.6-2.5l0-27.4c0-5.4-1.4-9.5-7.5-9.5c-3.8,0-8.2,2-11.3,4.5c0.2,0.9,0.4,14.3,0.4,15.7l0,16.7c0,1.8-0.7,2.5-2.4,2.5l-6.6,0c-1.8,0-2.6-0.7-2.6-2.5l0-27.4c0-5.3-1.1-9.5-7.2-9.5c-3.9,0-7.9,2.2-11.1,5l0,31.9c0,1.8-0.8,2.5-2.5,2.5l-7,0c-1.8,0-2.6-0.7-2.6-2.5l0-43.7c0-1.6,0.9-2.3,2.4-2.3l6.5,0c1.5,0,2.4,0.5,2.5,1.9l0.1,2.5c4.1-3.6,9.5-5.7,14.7-5.7c6.1,0,10.4,2.7,12.7,6.5c4.5-4.3,11-6.5,17.1-6.5c7.3,0,11.9,3.6,14,7.5c1.9,3.7,2.4,8.1,2.4,14.5l0,25.3z M158.25,129.1c0,7.6-2.3,14.5-6.5,19.4c-3.7,4.2-8.9,6.8-15.4,6.8c-4.6,0-9.2-1.7-12.1-4.7l0,22.4c0,2-0.9,2.6-2.6,2.6l-7,0c-1.6,0-2.4-0.9-2.4-2.6l0-65.2c0-1.7,0.8-2.3,2.4-2.3l6,0c1.7,0,2.6,0.4,2.7,1.9l0.1,2.7c2.9-3.3,8.6-5.8,14-5.8c6.6,0,11.2,2.5,14.5,6.1c4.3,4.7,6.3,11.7,6.3,18.7z M145.65,129.7c0-4.7-0.9-8.8-2.9-11.6c-1.9-2.7-4.7-4.1-8.2-4.1c-3.7,0-8.3,2.4-10.3,4.9l0,21.8c2,2.7,6,4.9,9.8,4.9c3.5,0,6.3-1.6,8-3.7c2.5-3.1,3.6-7.3,3.6-12.2z M219.2,129.7c0,14.4-8.8,25.5-24.4,25.5c-16.3,0-23.8-11-23.8-25.6c0-14.4,8.8-25.4,24.4-25.4c16.3,0,23.8,10.8,23.8,25.5z M206.7,129.7c0-8.2-2.6-16-11.4-16c-8.9,0-11.8,7.7-11.8,15.7c0,8.2,2.5,16.3,11.4,16.3c8.8,0,11.8-7.8,11.8-16z M280.85,129.1c0,7.6-2.3,14.5-6.5,19.4c-3.7,4.2-8.9,6.8-15.4,6.8c-4.6,0-9.2-1.7-12.1-4.7l0,22.4c0,2-0.9,2.6-2.6,2.6l-7,0c-1.6,0-2.4-0.9-2.4-2.6l0-65.2c0-1.7,0.8-2.3,2.4-2.3l6,0c1.7,0,2.6,0.4,2.7,1.9l0.1,2.7c2.9-3.3,8.6-5.8,14-5.8c6.6,0,11.2,2.5,14.5,6.1c4.3,4.7,6.3,11.7,6.3,18.7z M268.25,129.7c0-4.7-0.9-8.8-2.9-11.6c-1.9-2.7-4.7-4.1-8.2-4.1c-3.7,0-8.3,2.4-10.3,4.9l0,21.8c2,2.7,6,4.9,9.8,4.9c3.5,0,6.3-1.6,8-3.7c2.5-3.1,3.6-7.3,3.6-12.2z M326.7,151c0,1-0.5,1.5-1.5,1.9c-3.1,1.3-7.2,2.3-11.2,2.3c-5.1,0-9.5-1.3-12-4.2c-3.1-3.5-3.2-7.6-3.2-14.9l0-22.3l-4.7,0c-1.9,0-2.2-0.4-2.2-2.5l0-3.8c0-1.2,0.6-2,1.8-2l5.1,0l0-10.9c0-1.7,0.9-2.2,2.5-2.4l7.2-0.9l0.5,0c1.3,0,1.9,0.7,1.9,2.2l0,12l11.3,0c1.2,0,1.9,0.4,1.9,1.7l0,4.7c0,1.2-0.8,1.9-2,1.9l-11.2,0l0,22.9c0,3,0.2,5.2,1.3,6.8c0.9,1.3,2.3,2.1,4.7,2.1c2.5,0,4.6-0.6,6.4-1.2c0.4-0.1,0.7-0.2,1-0.2c0.7,0,1.1,0.4,1.3,1.2l1,5c0.1,0.3,0.1,0.4,0.1,0.6z"/><path fill="#" d=""/></svg>
